# xmcd
#
# Track frame offsets: 
#        150
#        25037
#        57758
#        77413
#        105381
#        134143
#        168300
#        198732
#        221258
#        246050
#        275758
#        300420
#        316109
#        334408
#
# Disc length: 4705 seconds
#
# Revision: 1
# Processed by: cddbd v1.5.2PL0 Copyright (c) Steve Scherf et al.
# Submitted via: ExactAudioCopy v0.99pb5
#
DISCID=be125f0e
DTITLE=Various Artist - Soul Steppin 80s Soulful Steppers
DYEAR=2009
DGENRE=Soul
TTITLE0=The Dells - All About The Paper
TTITLE1=The Impressions - Fan The Fire
TTITLE2=Patti Labelle - When I'm Gonna Find True Love
TTITLE3=John Davis and The Monster Orchestra - Bourgie Bourgie
TTITLE4=Mike and Brenda Sutton - Anyway You Want My Love
TTITLE5=Greg Henderson - Dreaming
TTITLE6=Steve Shelto - Don't Give Your Love Away
TTITLE7=David McPherson - You Can't Stop
TTITLE8=Underground - Behind My Back
TTITLE9=Scandal feat. Lee Genesis - Love Either Grows Or Goes
TTITLE10=Sound Troupe - Can You Really See Me
TTITLE11=Teddy Pendergrass - You And Me For Right Now
TTITLE12=Dee Dee Sharp Gamble - Easy Money
TTITLE13=Walter Jackson - Touching In The Dark
EXTD=
EXTT0=
EXTT1=
EXTT2=
EXTT3=
EXTT4=
EXTT5=
EXTT6=
EXTT7=
EXTT8=
EXTT9=
EXTT10=
EXTT11=
EXTT12=
EXTT13=
PLAYORDER=
